<svg xmlns="http://www.w3.org/2000/svg" xmlns:xlink="http://www.w3.org/1999/xlink" 
viewBox="0 0 396 231" data-background-color="#2add5d" preserveAspectRatio="xMidYMid meet" 
height="58.3" width="100"><g id="tight-bounds"
 transform="matrix(1,0,0,1,0.23999878403139974,0.24147017195630838)">
 <svg viewBox="0 0 395.52 230.51706241643916" height="230.51706241643916" 
 width="395.52"><g><svg viewBox="0 0 395.52 230.51706241643916"
  height="230.51706241643916" width="395.52">
  <g transform="matrix(1,0,0,1,0,142.46879245924956)">
  <svg viewBox="0 0 395.52 88.04826995718962" height="88.04826995718962" width="395.52"><g><svg viewBox="0 0 395.52 88.04826995718962" height="88.04826995718962" width="395.52"><g><svg viewBox="0 0 395.52 88.04826995718962" height="88.04826995718962" width="395.52"><g transform="matrix(1,0,0,1,0,0)"><svg width="395.52" viewBox="2.25 -33 198.52999877929688 44.20000076293945" height="88.04826995718962" data-palette-color="#2257bf"><path d="M2.25 0L2.25-0.5 2.5-0.5Q2.9-0.5 3.2-0.78 3.5-1.05 3.73-1.45 3.95-1.85 4.08-2.3 4.2-2.75 4.2-3.15L4.2-3.15 4.2-29.9Q4.2-30.25 4.08-30.7 3.95-31.15 3.73-31.55 3.5-31.95 3.2-32.23 2.9-32.5 2.5-32.5L2.5-32.5 2.25-32.5 2.25-33 9.45-33 9.45-32.5 9.2-32.5Q8.8-32.5 8.5-32.23 8.2-31.95 8-31.55 7.8-31.15 7.68-30.7 7.55-30.25 7.55-29.9L7.55-29.9 7.55-1.85 18.5-1.85Q19.45-1.85 20.15-2.3 20.85-2.75 21.33-3.43 21.8-4.1 22.03-4.88 22.25-5.65 22.25-6.3L22.25-6.3 22.75-6.3 22.75 0 2.25 0ZM45.6-10.1L28.25-10.1Q28.45-8.35 29.1-6.78 29.75-5.2 30.82-4 31.9-2.8 33.45-2.08 35-1.35 37.05-1.35L37.05-1.35Q38.15-1.35 39.37-1.68 40.6-2 41.65-2.6 42.7-3.2 43.52-4.08 44.35-4.95 44.65-6.05L44.65-6.05 45.1-6.05 45.1-2.3Q44.8-2.3 44.42-2.1 44.05-1.9 43.55-1.6L43.55-1.6Q42.55-1 40.85-0.33 39.15 0.35 36.35 0.35L36.35 0.35Q34.1 0.35 32.07-0.3 30.05-0.95 28.5-2.3 26.95-3.65 26.02-5.75 25.1-7.85 25.1-10.75L25.1-10.75Q25.1-12.6 25.72-14.5 26.35-16.4 27.62-17.93 28.9-19.45 30.9-20.4 32.9-21.35 35.7-21.35L35.7-21.35Q38.2-21.35 40.07-20.5 41.95-19.65 43.17-18.15 44.4-16.65 45-14.6 45.6-12.55 45.6-10.1L45.6-10.1ZM35.5-19.7L35.5-19.7Q33.75-19.7 32.47-19 31.2-18.3 30.3-17.2 29.4-16.1 28.9-14.7 28.4-13.3 28.25-11.9L28.25-11.9 42.5-11.9Q42.45-13.35 41.97-14.75 41.5-16.15 40.65-17.25 39.8-18.35 38.5-19.03 37.2-19.7 35.5-19.7ZM66.45 0L61.6 0 61.6-2.55 61.35-2.3Q60.1-1.05 58.47-0.35 56.85 0.35 54.55 0.35L54.55 0.35Q52.8 0.35 51.55-0.05 50.3-0.45 49.5-1.18 48.7-1.9 48.32-2.85 47.95-3.8 47.95-4.85L47.95-4.85Q47.95-6.55 48.87-7.85 49.8-9.15 51.55-10.15 53.3-11.15 55.82-11.98 58.35-12.8 61.6-13.6L61.6-13.6Q61.5-15.55 60.8-16.75 60.1-17.95 59.15-18.63 58.2-19.3 57.15-19.53 56.1-19.75 55.35-19.75L55.35-19.75Q54.05-19.75 53.07-19.35 52.1-18.95 51.37-18.32 50.65-17.7 50.15-16.98 49.65-16.25 49.35-15.6L49.35-15.6 48.9-15.6 48.9-19.25Q49.3-19.3 49.65-19.5 50-19.7 50.5-19.9L50.5-19.9Q51.25-20.2 52.55-20.78 53.85-21.35 56.2-21.35L56.2-21.35Q58.95-21.35 60.65-20.65 62.34-19.95 63.27-18.8 64.2-17.65 64.5-16.18 64.8-14.7 64.8-13.15L64.8-13.15 64.8-3.25Q64.8-2.25 65.25-1.38 65.7-0.5 66.45-0.5L66.45-0.5 66.45 0ZM61.05-4.15L61.6-4.75 61.6-11.9 61.1-11.8Q59.9-11.5 58.17-11 56.45-10.5 54.9-9.7 53.35-8.9 52.25-7.8 51.15-6.7 51.15-5.25L51.15-5.25Q51.15-3.65 52.45-2.6 53.75-1.55 55.85-1.55L55.85-1.55Q57.5-1.55 58.75-2.27 60-3 61.05-4.15L61.05-4.15ZM84.94-20.4L83.44-17.35Q82.84-18.35 82.19-18.6 81.54-18.85 80.69-18.85L80.69-18.85Q80.14-18.85 79.52-18.6 78.89-18.35 78.29-17.95 77.69-17.55 77.12-17.07 76.54-16.6 76.14-16.2L76.14-16.2 76.14-3.2Q76.14-2.8 76.24-2.35 76.34-1.9 76.57-1.48 76.79-1.05 77.07-0.78 77.34-0.5 77.74-0.5L77.74-0.5 77.74 0 71.24 0 71.24-0.5Q71.59-0.5 71.89-0.78 72.19-1.05 72.42-1.48 72.64-1.9 72.74-2.35 72.84-2.8 72.84-3.2L72.84-3.2 72.84-17.15Q72.84-17.85 72.39-18.55 71.94-19.25 71.09-19.45L71.09-19.45 71.09-19.85 76.14-21.35 76.14-18.35Q76.59-18.9 77.09-19.43 77.59-19.95 78.22-20.38 78.84-20.8 79.59-21.08 80.34-21.35 81.34-21.35L81.34-21.35Q82.04-21.35 83.14-21.05 84.24-20.75 84.94-20.4L84.94-20.4ZM108.19-12.9L108.19-3.25Q108.19-2.85 108.29-2.38 108.39-1.9 108.62-1.5 108.84-1.1 109.12-0.8 109.39-0.5 109.79-0.5L109.79-0.5 109.79 0 103.34 0 103.34-0.5Q103.69-0.5 103.99-0.8 104.29-1.1 104.52-1.5 104.74-1.9 104.84-2.38 104.94-2.85 104.94-3.25L104.94-3.25 104.94-12.55Q104.94-14.35 104.44-15.7 103.94-17.05 103.09-17.95 102.24-18.85 101.17-19.28 100.09-19.7 98.99-19.7L98.99-19.7Q97.89-19.7 96.81-19.25 95.74-18.8 94.92-18.07 94.09-17.35 93.56-16.38 93.04-15.4 93.04-14.35L93.04-14.35 93.04-3.25Q93.04-2.85 93.14-2.38 93.24-1.9 93.47-1.5 93.69-1.1 93.97-0.8 94.24-0.5 94.64-0.5L94.64-0.5 94.64 0 88.14 0 88.14-0.5Q88.49-0.5 88.79-0.8 89.09-1.1 89.31-1.5 89.54-1.9 89.64-2.38 89.74-2.85 89.74-3.25L89.74-3.25 89.74-17.05Q89.74-17.9 89.49-18.68 89.24-19.45 88.04-19.5L88.04-19.5 88.04-19.95 93.04-21.55 93.04-18.8Q93.39-19.2 93.94-19.68 94.49-20.15 95.27-20.58 96.04-21 97.06-21.28 98.09-21.55 99.49-21.55L99.49-21.55Q101.84-21.55 103.49-20.75 105.14-19.95 106.19-18.68 107.24-17.4 107.72-15.88 108.19-14.35 108.19-12.9L108.19-12.9ZM125.24-10.3L113.89-10.3 113.89-12.8 125.24-12.8 125.24-10.3ZM129.59 0L129.59-0.5 129.84-0.5Q130.24-0.5 130.53-0.78 130.84-1.05 131.06-1.45 131.28-1.85 131.41-2.3 131.53-2.75 131.53-3.15L131.53-3.15 131.53-29.9Q131.53-30.25 131.41-30.7 131.28-31.15 131.06-31.55 130.84-31.95 130.53-32.23 130.24-32.5 129.84-32.5L129.84-32.5 129.59-32.5 129.59-33 148.84-33 148.84-28.35 148.34-28.35Q148.24-29.5 147.44-30.38 146.64-31.25 144.94-31.25L144.94-31.25 134.89-31.25 134.89-18.6 143.19-18.6Q144.34-18.6 145.11-19.3 145.89-20 145.89-20.95L145.89-20.95 146.39-20.95 146.39-14.7 145.89-14.7Q145.89-15.6 145.14-16.25 144.39-16.9 143.19-16.9L143.19-16.9 134.89-16.9 134.89-1.75 145.84-1.75Q146.79-1.75 147.49-2.2 148.19-2.65 148.66-3.28 149.14-3.9 149.36-4.63 149.59-5.35 149.59-5.85L149.59-5.85 150.09-5.85 150.09 0 129.59 0ZM173.93-12.9L173.93-3.25Q173.93-2.85 174.03-2.38 174.13-1.9 174.36-1.5 174.58-1.1 174.86-0.8 175.13-0.5 175.53-0.5L175.53-0.5 175.53 0 169.08 0 169.08-0.5Q169.43-0.5 169.73-0.8 170.03-1.1 170.26-1.5 170.48-1.9 170.58-2.38 170.68-2.85 170.68-3.25L170.68-3.25 170.68-12.55Q170.68-14.35 170.18-15.7 169.68-17.05 168.83-17.95 167.98-18.85 166.91-19.28 165.83-19.7 164.73-19.7L164.73-19.7Q163.63-19.7 162.56-19.25 161.48-18.8 160.66-18.07 159.83-17.35 159.31-16.38 158.78-15.4 158.78-14.35L158.78-14.35 158.78-3.25Q158.78-2.85 158.88-2.38 158.98-1.9 159.21-1.5 159.43-1.1 159.71-0.8 159.98-0.5 160.38-0.5L160.38-0.5 160.38 0 153.88 0 153.88-0.5Q154.23-0.5 154.53-0.8 154.83-1.1 155.06-1.5 155.28-1.9 155.38-2.38 155.48-2.85 155.48-3.25L155.48-3.25 155.48-17.05Q155.48-17.9 155.23-18.68 154.98-19.45 153.78-19.5L153.78-19.5 153.78-19.95 158.78-21.55 158.78-18.8Q159.13-19.2 159.68-19.68 160.23-20.15 161.01-20.58 161.78-21 162.81-21.28 163.83-21.55 165.23-21.55L165.23-21.55Q167.58-21.55 169.23-20.75 170.88-19.95 171.93-18.68 172.98-17.4 173.46-15.88 173.93-14.35 173.93-12.9L173.93-12.9ZM190.83 9.3L190.83 9.3Q192.33 9.3 193.68 9.03 195.03 8.75 196.06 8.25 197.08 7.75 197.68 7.05 198.28 6.35 198.28 5.55L198.28 5.55Q198.28 4.7 197.46 4.1 196.63 3.5 195.23 3.05 193.83 2.6 191.98 2.27 190.13 1.95 188.13 1.6L188.13 1.6 185.58 1.15Q184.43 2.05 183.98 3.05 183.53 4.05 183.53 4.8L183.53 4.8Q183.53 5.85 184.11 6.68 184.68 7.5 185.66 8.1 186.63 8.7 187.96 9 189.28 9.3 190.83 9.3ZM187.33-1.7L193.58-0.7Q195.58-0.4 196.91 0.1 198.23 0.6 199.03 1.28 199.83 1.95 200.13 2.78 200.43 3.6 200.43 4.55L200.43 4.55Q200.43 6.25 199.5 7.5 198.58 8.75 197.11 9.58 195.63 10.4 193.75 10.8 191.88 11.2 189.93 11.2L189.93 11.2Q188.03 11.2 186.28 10.83 184.53 10.45 183.18 9.7 181.83 8.95 181.03 7.83 180.23 6.7 180.23 5.25L180.23 5.25Q180.23 3.95 181.03 2.78 181.83 1.6 183.63 0.45L183.63 0.45Q181.88-0.45 180.96-1.98 180.03-3.5 180.03-5.1L180.03-5.1Q180.03-6.05 180.48-6.98 180.93-7.9 181.93-8.7L181.93-8.7Q181.08-9.7 180.73-10.7 180.38-11.7 180.38-12.85L180.38-12.85Q180.38-14.65 181.13-16.2 181.88-17.75 183.18-18.9 184.48-20.05 186.23-20.7 187.98-21.35 189.98-21.35L189.98-21.35Q192.08-21.35 193.98-20.63 195.88-19.9 197.18-18.75L197.18-18.75 200.78-18.75 200.78-16.95 198.48-16.95Q198.83-16.2 199.18-15.18 199.53-14.15 199.53-13.05L199.53-13.05Q199.53-11.45 198.78-10.03 198.03-8.6 196.71-7.53 195.38-6.45 193.61-5.83 191.83-5.2 189.83-5.2L189.83-5.2Q187.98-5.2 186.23-5.75 184.48-6.3 183.13-7.35L183.13-7.35Q182.58-7 182.38-6.48 182.18-5.95 182.18-5.4L182.18-5.4Q182.18-3.8 183.63-2.93 185.08-2.05 187.33-1.7L187.33-1.7ZM189.38-19.6L189.38-19.6Q188.18-19.6 187.13-19.18 186.08-18.75 185.28-18 184.48-17.25 184-16.18 183.53-15.1 183.53-13.75L183.53-13.75Q183.53-12.1 184.21-10.8 184.88-9.5 185.93-8.65 186.98-7.8 188.25-7.35 189.53-6.9 190.68-6.9L190.68-6.9Q191.93-6.9 192.96-7.38 193.98-7.85 194.73-8.68 195.48-9.5 195.88-10.6 196.28-11.7 196.28-12.9L196.28-12.9Q196.28-14.4 195.68-15.65 195.08-16.9 194.11-17.78 193.13-18.65 191.88-19.13 190.63-19.6 189.38-19.6Z" opacity="1" transform="matrix(1,0,0,1,0,0)" fill="#2257bf" class="undefined-text-0" data-fill-palette-color="primary" id="text-0"/></svg></g></svg></g></svg></g></svg></g><g transform="matrix(1,0,0,1,132.83388894576512,0)"><svg viewBox="0 0 129.8522221084697 121.68270908083606" height="121.68270908083606" width="129.8522221084697"><g><svg xmlns="http://www.w3.org/2000/svg" xmlns:xlink="http://www.w3.org/1999/xlink" version="1.1" x="8" y="0" viewBox="59.5 29.100021362304688 881.0999755859375 941.699951171875" style="enable-background:new 0 0 1000 1000;" xml:space="preserve" height="121.68270908083606" width="113.8522221084697" class="icon-icon-0" data-fill-palette-color="accent" id="icon-0"><g fill="#2257bf" data-fill-palette-color="accent"><path d="M146.6 312.2l273.4-157.9h0c7.6 3.1 15.8 4.8 24.4 4.8 35.8 0 65-29.2 65-65 0-35.8-29.2-65-65-65-35.8 0-64.8 29-65 64.7v0L97 256.9c-23.1 13.4-37.5 38.3-37.5 65.1v347.2c0 26.7 14.4 51.7 37.6 65.1l318 183.6c4.4 2.5 9.4 3.9 14.4 3.9 5 0 10-1.3 14.4-3.9 9-5.2 14.4-14.6 14.4-25v-9.3c0-15.2-8.2-29.3-21.3-36.9L146.6 679c-8.9-5.2-14.5-14.8-14.5-25.1V337.3C132.1 327 137.7 317.3 146.6 312.2zM405.4 78.9L405.4 78.9c6.1-15.7 21.3-26.7 39.1-26.7 2.2 0 4.3 0.2 6.4 0.5h0c2.6 0.4 5.1 1 7.4 1.9 16.4 5.7 28.1 21.3 28.1 39.6 0 20.1-14.2 37-33.1 41-2.8 0.6-5.8 0.9-8.8 0.9-23.2 0-42-18.8-42-42C402.5 88.7 403.6 83.6 405.4 78.9z" fill="#2257bf" data-fill-palette-color="accent"/><path d="M903.6 276.8L585.4 93.1c-4.5-2.6-9.5-3.9-14.6-3.9-5.1 0-10.1 1.4-14.6 3.9-9.1 5.3-14.6 14.7-14.6 25.3v12.9c0 12.6 6.8 24.3 17.7 30.6L854 332c8.6 4.9 13.9 14.1 13.9 24v318c0 9.9-5.3 19.1-13.9 24l-266.4 150c-8.9-4.6-19-7.2-29.6-7.2-35.8 0-65 29.2-65 65 0 35.8 29.2 65 65 65 32.5 0 59.5-23.9 64.3-55.1l281.4-162.5c22.8-13.2 36.9-37.6 36.9-63.9V340.7C940.5 314.4 926.4 289.9 903.6 276.8zM587 936.1c-4.9 4.7-10.8 8.2-17.5 10.1-3.7 1.1-7.6 1.6-11.6 1.6-0.4 0-0.9 0-1.3 0-22.6-0.7-40.7-19.2-40.7-41.9 0-23.2 18.8-42 42-42 2.2 0 4.4 0.2 6.5 0.5 20.1 3.1 35.5 20.5 35.5 41.5C599.9 917.8 595 928.5 587 936.1z" fill="#2257bf" data-fill-palette-color="accent"/><path d="M689.4 551L196.9 681.6c-8.6 2.3-16.8-13.8-12-23.6l11.3-23.3c9-18.6 22.7-31 38.9-35.3l488.9-129.6c8.6-2.3 16.8 13.8 12 23.6l-13.2 27.4C715 536.7 703.3 547.4 689.4 551z" fill="#2257bf" data-fill-palette-color="accent"/><path d="M693 669.3l-304.9 80.8c-5.3 1.4-12.1-15-10-24.2l5.1-21.6c4-17.3 11.7-28.1 21.8-30.7l302.7-80.2c5.3-1.4 12.1 15 10 24.2l-5.9 25.4C708.2 657.8 701.6 667 693 669.3z" fill="#2257bf" data-fill-palette-color="accent"/><path d="M614.1 358.5l-304.9 80.8c-5.3 1.4-12.1-15-10-24.2l5.1-21.6c4-17.3 11.7-28.1 21.8-30.7l302.7-80.2c5.3-1.4 12.1 15 10 24.2l-5.9 25.4C629.2 347 622.7 356.2 614.1 358.5z" fill="#2257bf" data-fill-palette-color="accent"/><path d="M778 418.1L285.6 548.6c-8.6 2.3-16.8-13.8-12-23.6l11.3-23.3c9-18.6 22.7-31 38.9-35.3l488.9-129.6c8.6-2.3 16.8 13.8 12 23.6l-13.2 27.4C803.7 403.8 792 414.4 778 418.1z" fill="#2257bf" data-fill-palette-color="accent"/></g></svg></g></svg></g><g><rect width="132.83388894576512" height="7.940283850553956" y="112.7424252302821" x="262.68611105423486" fill="#2257bf" data-fill-palette-color="accent"/><rect width="132.83388894576512" height="7.940283850553956" y="112.7424252302821" x="0" fill="#2257bf" data-fill-palette-color="accent"/><rect width="132.83388894576512" height="7.940283850553956" y="96.86185752917419" x="262.68611105423486" fill="#2257bf" data-fill-palette-color="accent"/><rect width="132.83388894576512" height="7.940283850553956" y="96.86185752917419" x="0" fill="#2257bf" data-fill-palette-color="accent"/></g></svg></g><defs/></svg><rect width="395.52" height="230.51706241643916" fill="none" stroke="none" visibility="hidden"/></g></svg>